<svg viewBox="0 0 183 27" fill="none" xmlns="http://www.w3.org/2000/svg">
<path d="M22.6787 3.34058L14.8586 21.9971H9.75637L5.90775 7.10758C5.67472 6.19263 5.47182 5.85586 4.76167 5.46913C3.6011 4.83869 1.6846 4.24906 0 3.88216L0.113655 3.34058H8.32768C9.37307 3.34058 10.3143 4.03662 10.5535 5.24182L12.5871 16.0386L17.6073 3.34058H22.6787ZM29.5761 3.34058L25.5852 21.9971H20.7584L24.7492 3.34058H29.5761ZM42.6693 15.9059C42.6895 10.9829 35.8622 10.7098 35.9068 8.50996C35.9232 7.84138 36.5602 7.12932 37.9545 6.9474C38.6452 6.85815 40.5533 6.78683 42.7147 7.78264L43.5602 3.82419C42.3989 3.40427 40.9046 3 39.0457 3C34.2741 3 30.9175 5.53434 30.8908 9.16633C30.8595 11.8529 33.2882 13.3502 35.1147 14.2449C36.9961 15.1587 37.6269 15.7461 37.6181 16.5627C37.6048 17.8144 36.1158 18.3685 34.7314 18.3891C32.3038 18.4277 30.8965 17.7331 29.7741 17.2103L28.898 21.2999C30.0273 21.8175 32.1086 22.2671 34.2642 22.29C39.3367 22.29 42.6544 19.7846 42.6693 15.9059ZM55.2693 21.9971H59.732L55.833 3.34058H51.7155C50.7868 3.34058 50.0065 3.87949 49.6602 4.70825L42.4176 21.9971H47.4862L48.4916 19.2103H54.6842L55.2693 21.9971ZM49.8814 15.3872L52.423 8.38105L53.8829 15.3872H49.8814Z" fill="#1A1F71"/>
<path d="M166.75 2.8877H154.938V24.1127H166.75V2.8877Z" fill="#6C6BBD"/>
<path d="M155.688 13.5C155.688 9.1875 157.713 5.3625 160.825 2.8875C158.538 1.0875 155.65 0 152.5 0C145.038 0 139 6.0375 139 13.5C139 20.9625 145.038 27 152.5 27C155.65 27 158.538 25.9125 160.825 24.1125C157.713 21.675 155.688 17.8125 155.688 13.5Z" fill="#EB001B"/>
<path d="M182.688 13.5C182.688 20.9625 176.65 27 169.188 27C166.038 27 163.15 25.9125 160.863 24.1125C164.013 21.6375 166 17.8125 166 13.5C166 9.1875 163.975 5.3625 160.863 2.8875C163.15 1.0875 166.038 0 169.188 0C176.65 0 182.688 6.075 182.688 13.5Z" fill="#0099DF"/>
<path d="M104.75 2.8877H92.9375V24.1127H104.75V2.8877Z" fill="#FF5F00"/>
<path d="M93.6875 13.5C93.6875 9.1875 95.7125 5.3625 98.825 2.8875C96.5375 1.0875 93.65 0 90.5 0C83.0375 0 77 6.0375 77 13.5C77 20.9625 83.0375 27 90.5 27C93.65 27 96.5375 25.9125 98.825 24.1125C95.7125 21.675 93.6875 17.8125 93.6875 13.5Z" fill="#EB001B"/>
<path d="M120.688 13.5C120.688 20.9625 114.65 27 107.188 27C104.038 27 101.15 25.9125 98.8625 24.1125C102.013 21.6375 104 17.8125 104 13.5C104 9.1875 101.975 5.3625 98.8625 2.8875C101.15 1.0875 104.038 0 107.188 0C114.65 0 120.688 6.075 120.688 13.5Z" fill="#F79E1B"/>
</svg>
