<svg width="54" height="54" viewBox="0 0 54 54" fill="none" xmlns="http://www.w3.org/2000/svg">
<circle cx="27" cy="27" r="27" fill="#BD7ACE"/>
<path fill-rule="evenodd" clip-rule="evenodd" d="M28.5624 19.9604C30.5281 20.2555 32.4145 20.9662 34.105 22.0486C35.7954 23.1309 37.2539 24.5619 38.3901 26.2528C39.5264 27.9438 40.3162 29.8589 40.7107 31.8795C41.1053 33.9001 41.0961 35.9832 40.6839 38H36.748C37.1679 36.5199 37.2858 34.9651 37.0941 33.435C36.9025 31.9049 36.4056 30.4331 35.635 29.1136C34.8645 27.7942 33.8373 26.656 32.6191 25.7718C31.401 24.8877 30.0185 24.2769 28.5601 23.9786V34.4457L24.6504 36.4855V23.9373C23.1688 24.2086 21.759 24.8015 20.5134 25.6772C19.2677 26.5528 18.2141 27.6916 17.4215 29.019C16.6289 30.3463 16.1151 31.8324 15.9138 33.38C15.7125 34.9277 15.8282 36.502 16.2532 38H12.3174C11.9004 35.9647 11.8942 33.8617 12.2993 31.8238C12.7044 29.7859 13.5118 27.8572 14.6708 26.1594C15.8298 24.4616 17.3151 23.0315 19.0331 21.9593C20.7511 20.8871 22.6645 20.196 24.6526 19.9297V18.041L28.5624 16V19.9604Z" fill="white"/>
</svg>
