<svg width="54" height="54" viewBox="0 0 54 54" fill="none" xmlns="http://www.w3.org/2000/svg">
<circle cx="27" cy="27" r="27" fill="#F29E99"/>
<mask id="mask0_1_120" style="mask-type:alpha" maskUnits="userSpaceOnUse" x="0" y="0" width="54" height="54">
<circle cx="27" cy="27" r="27" fill="white"/>
</mask>
<g mask="url(#mask0_1_120)">
</g>
<path fill-rule="evenodd" clip-rule="evenodd" d="M15.5254 27.0004C15.5254 20.6728 20.6728 15.5254 27.0004 15.5254C33.328 15.5254 38.4754 20.6728 38.4754 27.0004C38.4754 33.328 33.328 38.4754 27.0004 38.4754C20.6728 38.4754 15.5254 33.328 15.5254 27.0004ZM31.487 33.0401C31.7299 33.0401 31.9729 32.9479 32.1579 32.7647C32.5289 32.3974 32.5289 31.8037 32.1579 31.4363L27.6907 27.0143V21.2966C27.6907 20.7771 27.2657 20.3572 26.7418 20.3572C26.2178 20.3572 25.7928 20.7771 25.7928 21.2966V27.4032C25.7928 27.653 25.8923 27.8918 26.0708 28.0674L30.8161 32.7647C31.001 32.9479 31.2441 33.0401 31.487 33.0401Z" fill="white"/>
</svg>
