<svg width="132" height="111" viewBox="0 0 132 111" fill="none" xmlns="http://www.w3.org/2000/svg">
<path d="M47.7147 95.4295C74.0669 95.4295 95.4295 74.0669 95.4295 47.7147C95.4295 21.3626 74.0669 0 47.7147 0C21.3626 0 0 21.3626 0 47.7147C0 74.0669 21.3626 95.4295 47.7147 95.4295Z" fill="#FEDD00"/>
<path d="M82.9541 104.293L13.5212 64.2208C13.3868 64.1491 13.2363 64.1131 13.084 64.1164C12.9317 64.1197 12.7829 64.1621 12.6517 64.2395C12.5205 64.3168 12.4114 64.4267 12.3349 64.5584C12.2584 64.6901 12.2171 64.8392 12.2148 64.9915V68.2182C12.2146 68.3744 12.2555 68.5279 12.3335 68.6632C12.4115 68.7985 12.5238 68.9109 12.659 68.989L82.9541 109.571C84.4327 110.425 86.1098 110.874 87.8171 110.874C89.5243 110.874 91.2015 110.425 92.68 109.571L130.747 87.794C130.882 87.7154 130.994 87.6029 131.072 87.4677C131.15 87.3325 131.191 87.1793 131.191 87.0233V83.7965C131.189 83.6443 131.148 83.4951 131.071 83.3634C130.995 83.2317 130.886 83.1219 130.755 83.0445C130.623 82.9671 130.475 82.9247 130.322 82.9214C130.17 82.9182 130.019 82.9541 129.885 83.0258L92.7061 104.293C91.2245 105.152 89.5425 105.604 87.8301 105.604C86.1178 105.604 84.4358 105.152 82.9541 104.293Z" fill="#A0A9AE"/>
<path d="M66.3563 16.7344L58.074 21.3066C59.6351 28.3348 57.0812 34.9711 51.9538 36.578C47.8453 37.8843 43.2403 35.5655 40.1639 31.1762L29.7783 36.9045C29.7783 36.9045 35.2912 65.4942 80.2887 95.6907L89.7794 90.1909C88.6494 86.925 88.8518 83.6591 90.6677 81.2619C93.8291 77.0359 100.733 76.7615 106.775 80.341L116.357 74.7889C116.357 74.7889 82.4637 59.5503 66.3563 16.7344ZM70.1579 35.0234L71.0854 36.6302L67.8783 38.4787L66.9507 36.8784L70.1579 35.0234ZM63.7436 38.7269L64.6646 40.3533L61.464 42.2018L60.5365 40.6015L63.7436 38.7269ZM57.3294 42.4566L58.2569 44.0634L55.0498 45.9119L54.1223 44.3116L57.3294 42.4566ZM42.2214 53.3124L41.3004 51.7121L44.5075 49.8571L45.4285 51.4639L42.2214 53.3124ZM47.7146 48.0086L50.9479 46.1536L51.8754 47.7604L48.6356 49.6415L47.7146 48.0086ZM57.9826 66.7483L50.7976 58.3615L51.7186 57.8193L58.9036 66.2062L57.9826 66.7483ZM60.4385 65.3178L53.2928 56.918L54.2138 56.3823L61.3595 64.7626L60.4385 65.3178ZM63.8939 63.2865L56.7481 54.867L58.1328 54.0832L65.3178 62.4634L63.8939 63.2865ZM66.585 61.7123L59.4392 53.3189L60.3602 52.7768L67.5125 61.1571L66.585 61.7123ZM70.2689 59.5503L63.1231 51.1504L64.0441 50.6148L71.2291 58.9951L70.2689 59.5503ZM72.7314 58.1067L65.5791 49.7134L66.5 49.1712L73.685 57.5515L72.7314 58.1067ZM74.2598 57.2119L67.0749 48.8251L67.3949 48.6356L74.5799 57.0225L74.2598 57.2119ZM75.1873 56.6632L68.0024 48.2829L68.9233 47.7408L76.1083 56.1211L75.1873 56.6632ZM78.8713 54.5012L71.7255 46.1078L72.6465 45.5657L79.8314 53.946L78.8713 54.5012Z" fill="#242627"/>
<path d="M130.381 77.0096L91.8436 54.7558C91.7745 54.7211 91.6952 54.7126 91.6203 54.7319C91.5454 54.7511 91.48 54.7968 91.4362 54.8605C91.3924 54.9242 91.3732 55.0016 91.382 55.0785C91.3908 55.1553 91.4272 55.2263 91.4843 55.2784L100.805 62.9402L100.864 62.9793L121.008 74.6125L80.2627 98.1269L16.5124 61.3399L34.2462 51.098C33.8021 50.3011 33.3906 49.5369 33.0117 48.7988L13.338 60.1511C13.1306 60.2718 12.9585 60.4448 12.8388 60.6528C12.7192 60.8609 12.6562 61.0966 12.6562 61.3366C12.6563 61.5766 12.7192 61.8123 12.8388 62.0204C12.9585 62.2284 13.1306 62.4014 13.338 62.5221L83.2281 102.876C84.6222 103.684 86.2051 104.11 87.8167 104.11C89.4283 104.11 91.0113 103.684 92.4053 102.876L130.368 80.9548C130.716 80.757 131.006 80.4708 131.208 80.1251C131.41 79.7794 131.517 79.3864 131.518 78.986C131.52 78.5856 131.415 78.192 131.215 77.8449C131.016 77.4979 130.728 77.2097 130.381 77.0096ZM115.907 83.8223L97.8332 94.4887C97.6915 94.5747 97.5287 94.6199 97.3629 94.6193C97.1602 94.6184 96.9634 94.5511 96.8026 94.4276C96.6417 94.3042 96.5258 94.1315 96.4724 93.9359C96.4191 93.7403 96.4313 93.5326 96.5072 93.3446C96.5831 93.1566 96.7185 92.9987 96.8927 92.895L114.96 82.2285C115.064 82.1613 115.182 82.1159 115.304 82.0949C115.427 82.0739 115.553 82.0779 115.674 82.1065C115.795 82.1351 115.909 82.1878 116.009 82.2615C116.11 82.3352 116.194 82.4283 116.258 82.5353C116.321 82.6423 116.363 82.7611 116.38 82.8844C116.396 83.0078 116.388 83.1332 116.355 83.2533C116.323 83.3734 116.266 83.4857 116.189 83.5834C116.112 83.6812 116.016 83.7624 115.907 83.8223Z" fill="#C7CFD5"/>
</svg>
