<svg viewBox="0 0 20 20" fill="none" xmlns="http://www.w3.org/2000/svg" class="fill-gray-500"><path fill-rule="evenodd" clip-rule="evenodd" d="M7.4492 11.541H15.2656C16.0525 11.541 16.7397 11.1056 17.1016 10.4604L20.8525 3.65115C20.9364 3.50425 20.9836 3.33113 20.9836 3.14754C20.9836 2.56525 20.5115 2.09838 19.9345 2.09838H4.4223L3.42556 0H0V2.09838H2.09838L5.87016 10.0564L4.45377 12.6269C4.29113 12.9312 4.1967 13.2721 4.1967 13.6394C4.1967 14.7987 5.13575 15.7377 6.29508 15.7377H18.8852V13.6393H6.741C6.5941 13.6393 6.47872 13.5239 6.47872 13.377C6.47872 13.3298 6.4892 13.2879 6.5102 13.2511L7.4492 11.541ZM6.29508 16.7869C5.13575 16.7869 4.20723 17.7259 4.20723 18.8852C4.20723 20.0446 5.13575 20.9836 6.29508 20.9836C7.45441 20.9836 8.39346 20.0446 8.39346 18.8852C8.39346 17.7259 7.45441 16.7869 6.29508 16.7869ZM14.699 18.8852C14.699 17.7259 15.6275 16.7869 16.7869 16.7869C17.9462 16.7869 18.8852 17.7259 18.8852 18.8852C18.8852 20.0446 17.9462 20.9836 16.7869 20.9836C15.6275 20.9836 14.699 20.0446 14.699 18.8852Z" fill="#6b7280"></path></svg>