<svg width="54" height="54" viewBox="0 0 54 54" fill="none" xmlns="http://www.w3.org/2000/svg">
<circle cx="27" cy="27" r="27" fill="#FFDD00"/>
<path d="M28.1951 34.8938L29.8832 28.4756L31.1067 24.0195C32.1287 19.2906 21.5484 23.3066 20 24.5149L20.1242 25.9332C21.5341 24.941 26.8729 23.6699 25.8085 27.1827L25.3309 28.9757L22.8966 38.0567C21.8746 42.7855 32.4549 38.7695 34.0033 37.5613L33.8791 36.1429C32.4695 37.1355 27.1307 38.4065 28.1951 34.8938Z" fill="white"/>
<path d="M29.5942 20.5473C31.4022 20.5473 32.8679 19.0817 32.8679 17.2737C32.8679 15.4657 31.4022 14 29.5942 14C27.7862 14 26.3206 15.4657 26.3206 17.2737C26.3206 19.0817 27.7862 20.5473 29.5942 20.5473Z" fill="white"/>
</svg>
