<svg width="54" height="54" viewBox="0 0 54 54" fill="none" xmlns="http://www.w3.org/2000/svg">
<circle cx="27" cy="27" r="27" fill="#7AC9CE"/>
<path d="M27.1228 44.041C28.5175 44.041 29.9122 43.8687 31.307 43.52C31.1347 43.1714 30.786 42.9991 30.2609 43.1714C30.7818 40.7306 31.1305 39.5123 32.1766 38.4662C32.8739 37.9453 33.2226 37.0715 32.6975 36.3742C32.3488 35.8532 31.6514 35.5045 31.1305 35.6768C30.0845 35.849 30.7818 34.4585 29.9122 34.2821C29.0426 34.1098 27.8201 32.3664 26.6018 31.8413C25.9045 31.4926 25.2071 30.623 24.1611 30.623C23.2915 30.623 21.8967 31.4926 21.8967 30.7952C21.8967 28.7031 21.7245 27.3084 21.7245 26.6111C21.7245 26.0901 21.3758 26.4388 22.7705 26.4388C23.4679 26.4388 23.1192 25.0441 23.8166 25.0441C24.514 25.0441 26.0809 25.7414 26.4296 25.3928C26.7783 25.2205 29.2191 31.669 29.2191 26.4388C29.2191 25.7414 28.8704 24.6954 29.2191 24.1745C30.0887 22.7798 30.9625 21.2128 31.6598 19.6416C30.9625 19.4694 30.0929 19.4694 29.3955 19.6416C29.0468 19.8139 29.5677 20.339 29.0468 20.339C27.3034 20.6877 25.7364 19.8181 26.2574 18.9442C26.7783 18.0746 28.8704 18.5956 29.0468 16.8522C29.2191 15.8061 29.2191 14.7601 29.2191 13.8905C31.4834 14.2391 31.3112 11.2774 28.3495 10.5801H27.4799C19.4602 10.5801 12.663 16.159 11.0918 24.0022C11.7892 24.6996 13.0074 24.6996 13.5326 23.83C13.3603 23.6578 13.3603 23.6578 13.5326 23.4813C14.2299 24.0022 15.276 24.0022 15.276 24.876C15.276 27.8377 15.4482 30.9759 18.0654 30.9759C19.1115 31.3246 19.8088 32.1942 20.1575 33.2402C20.3298 33.9376 21.3758 33.2402 22.2496 33.2402C22.7705 33.2402 22.2496 34.1098 22.2496 35.8532C22.2496 37.5966 26.2574 40.5583 26.2574 40.5583C26.2574 41.6044 26.2574 42.474 26.4296 43.52C25.9087 43.52 25.2113 43.52 24.6862 43.6923C25.5558 44.041 26.2532 44.041 27.1228 44.041ZM42.8135 21.7253C42.8135 21.7253 42.6412 21.7253 42.6412 21.5531C41.5952 18.7636 38.9822 20.8557 39.8518 23.12C34.9702 26.7791 36.3649 29.3963 37.9361 30.791C38.8057 31.6606 39.5031 32.5344 40.0282 33.5805C39.5073 34.9752 41.5952 34.6265 42.9899 32.5344C43.6873 30.791 43.8595 28.8754 43.8595 26.9555V25.3886C43.8595 25.0399 43.8595 24.6912 43.6873 24.519C43.5108 23.8174 43.1621 22.7713 42.8135 21.7253Z" fill="white"/>
<path d="M27.2998 45.6116C17.188 45.6116 8.99609 37.4197 8.99609 27.3079C8.99609 17.1961 17.188 9 27.2998 9C37.4116 9 45.6035 17.1919 45.6035 27.3037C45.6035 37.4155 37.4116 45.6116 27.2998 45.6116ZM27.2998 10.7434C18.2341 10.7434 10.7395 18.238 10.7395 27.3037C10.7395 36.3694 18.2341 43.8682 27.2998 43.8682C36.3655 43.8682 43.8601 36.3736 43.8601 27.3079C43.8601 18.2422 36.3655 10.7434 27.2998 10.7434Z" fill="white"/>
</svg>
