<svg width="106" height="134" viewBox="0 0 106 134" fill="none" xmlns="http://www.w3.org/2000/svg"><path d="M103.859 112.36L105.188 117.688L44.7302 132.731C42.2642 133.352 39.6999 133.481 37.1842 133.109C34.6685 132.738 32.2508 131.875 30.0696 130.569C27.8884 129.262 25.9865 127.539 24.473 125.496C22.9594 123.454 21.8638 121.134 21.249 118.668L1.36082 38.8246C0.746366 36.3578 0.625058 33.794 1.00386 31.2802C1.38265 28.7664 2.25411 26.3519 3.56827 24.1752C4.88244 21.9985 6.61349 20.1024 8.6622 18.5954C10.7109 17.0885 13.037 16.0004 15.5072 15.3935L75.9578 0.326995L77.2868 5.64929C75.0216 6.21229 73.0728 7.65153 71.8693 9.6504C70.6657 11.6493 70.306 14.044 70.8691 16.3079C71.4323 18.5717 72.8723 20.5192 74.8723 21.7218C76.8723 22.9245 79.2685 23.2839 81.5337 22.7209L82.87 28.0662C80.6046 28.6268 78.6548 30.0639 77.4495 32.0612C76.2442 34.0586 75.8821 36.4525 76.443 38.7165C77.0038 40.9805 78.4416 42.929 80.4401 44.1334C82.4386 45.3378 84.834 45.6995 87.0994 45.1388L88.4287 50.4669C86.1635 51.0307 84.2151 52.4707 83.0121 54.4701C81.8091 56.4694 81.4501 58.8645 82.0141 61.1282C82.578 63.392 84.0187 65.3391 86.0193 66.5412C88.0198 67.7433 90.4162 68.1019 92.6815 67.5381L94.0118 72.8838C91.7466 73.4468 89.7978 74.8861 88.5943 76.8849C87.3907 78.8838 87.031 81.2786 87.5941 83.5424C88.1573 85.8062 89.5973 87.7537 91.5973 88.9563C93.5973 90.159 95.9935 90.5184 98.2588 89.9554L99.5884 95.2894C97.3232 95.8531 95.3748 97.2931 94.1719 99.2925C92.9689 101.292 92.6099 103.687 93.1738 105.951C93.7378 108.214 95.1785 110.162 97.179 111.364C99.1795 112.566 101.576 112.924 103.841 112.361" fill="#FEDC00"></path> <path d="M51.3148 100.85L61.8797 98.2217L51.301 55.7458L41.6181 61.9227L51.3148 100.85Z" fill="#838384"></path> <path d="M41.5464 39.1221C40.1468 39.4744 38.8829 40.2332 37.9143 41.3026C36.9456 42.372 36.3157 43.7042 36.1038 45.1311C35.892 46.5579 36.1078 48.0155 36.7241 49.3198C37.3403 50.6241 38.3293 51.7167 39.5664 52.4598C40.8034 53.2029 42.2329 53.5631 43.6747 53.495C45.1164 53.4269 46.5056 52.9335 47.6671 52.0772C48.8286 51.2208 49.7103 50.0398 50.2009 48.6832C50.6914 47.3266 50.769 45.8552 50.4236 44.4547C50.1912 43.5219 49.7773 42.644 49.2054 41.8712C48.6334 41.0984 47.9148 40.4458 47.0904 39.9506C46.2661 39.4554 45.3522 39.1274 44.4009 38.9852C43.4497 38.8431 42.4797 38.8896 41.5464 39.1221Z" fill="#838384"></path></svg>