<svg width="10" height="12" viewBox="0 0 10 12" fill="none" xmlns="http://www.w3.org/2000/svg"><path d="M9.28669 2.2473C9.6845 2.2473 10 2.57863 10 2.9964C10 3.41417 9.6845 3.7455 9.28669 3.7455H9.17695L8.66941 10.617C8.61454 11.395 7.99726 12 7.2428 12H2.7572C2.01646 12 1.38546 11.395 1.33059 10.617L0.823045 3.7455H0.713306C0.315501 3.7455 0 3.41417 0 2.9964C0 2.57863 0.315501 2.2473 0.713306 2.2473H2.85322V1.4982C2.85322 0.705882 3.42936 0.057623 4.1701 0H4.27984H5.70645C6.4609 0 7.07819 0.605042 7.13306 1.38295V1.4982V2.2473H9.28669ZM7.73663 3.7455H2.24966L2.74348 10.5018H7.2428L7.73663 3.7455ZM5.72016 1.4982H4.27984V2.2473H5.70645V1.4982H5.72016Z" fill="#979797"></path></svg>