<svg width="54" height="54" viewBox="0 0 54 54" fill="none" xmlns="http://www.w3.org/2000/svg">
<circle cx="27" cy="27" r="27" fill="#FFA800"/>
<path d="M18.5333 40.6357C19.8837 39.0395 19.5934 36.8709 18.3254 35.619C17.051 34.3608 14.9131 34.1087 13.3376 35.4388C13.3129 35.4156 13.2866 35.3923 13.2618 35.3676C12.6397 34.7455 12.0176 34.1233 11.3955 33.5011C10.8677 32.9728 10.8683 32.2484 11.3967 31.7203C16.4734 26.6418 21.55 21.5637 26.6266 16.4859C26.6475 16.4652 26.6661 16.4414 26.6913 16.4115C26.8199 16.704 27.0672 16.8779 27.2741 17.0843C27.5032 17.3112 27.8548 17.3019 28.0863 17.0843C28.3178 16.8666 28.3465 16.513 28.1401 16.2718C27.9973 16.1047 27.8348 15.9533 27.6738 15.8027C27.6144 15.7463 27.5325 15.7123 27.4561 15.6654C27.4736 15.6456 27.4922 15.6238 27.5125 15.6035C28.5912 14.5243 29.6701 13.4455 30.7493 12.367C31.1967 11.9206 31.8747 11.8763 32.3555 12.2623C32.4629 12.3486 32.5563 12.4525 32.6542 12.5502C33.2322 13.128 33.8098 13.7061 34.387 14.2845C34.4032 14.3007 34.4183 14.3177 34.4396 14.3405C33.7543 15.1967 33.466 16.1672 33.6322 17.2548C33.7652 18.1254 34.1717 18.8575 34.8262 19.4466C36.0497 20.5487 38.0684 20.8029 39.632 19.5338C39.6547 19.5554 39.6789 19.577 39.7018 19.5999C40.3384 20.2356 40.9749 20.8714 41.6113 21.5073C42.1285 22.0244 42.1294 22.7493 41.615 23.265L38.4455 26.4417C38.42 26.4672 38.3968 26.4951 38.3788 26.5151C38.2007 26.335 38.0302 26.1589 37.8539 25.9884C37.6885 25.8287 37.4873 25.7842 37.2691 25.8499C37.0455 25.9164 36.9046 26.0721 36.8572 26.2996C36.8156 26.4975 36.8617 26.6813 37.0055 26.8291C37.1775 27.0054 37.3551 27.176 37.5453 27.3633C37.5178 27.3802 37.4918 27.3994 37.4675 27.4207C33.0489 31.8381 28.6302 36.2558 24.2116 40.6737C23.557 41.3284 22.9017 41.9825 22.2456 42.6361C21.7654 43.1151 21.0233 43.1235 20.5441 42.6478C19.8862 41.996 19.2337 41.3391 18.579 40.6842C18.5638 40.6697 18.5513 40.6553 18.5333 40.6357ZM29.2218 17.6791C29.0465 17.6878 28.8581 17.8009 28.7546 18.034C28.6512 18.2671 28.6911 18.4891 28.8587 18.6765C28.9972 18.831 29.1456 18.9765 29.2977 19.1173C29.4123 19.2243 29.564 19.2826 29.7208 19.2798C29.8775 19.2771 30.0271 19.2135 30.1378 19.1025C30.3633 18.8742 30.3653 18.5049 30.1378 18.2647C30.0019 18.1215 29.8608 17.9832 29.7189 17.8455C29.6028 17.7333 29.4631 17.6749 29.2218 17.6791ZM31.334 19.7131C31.0821 19.7244 30.8934 19.8374 30.7907 20.071C30.688 20.3047 30.727 20.5261 30.8952 20.7133C31.0337 20.8674 31.182 21.0131 31.3342 21.154C31.4483 21.2612 31.5999 21.3195 31.7565 21.3164C31.9131 21.3133 32.0622 21.2491 32.1721 21.1375C32.3994 20.9074 32.4016 20.5422 32.1721 20.3008C32.036 20.1577 31.8951 20.0192 31.753 19.8817C31.6984 19.8267 31.6331 19.7834 31.5612 19.7545C31.4893 19.7255 31.4123 19.7114 31.3348 19.7131H31.334ZM32.7706 22.3485C32.7706 22.4935 32.8125 22.6255 32.9091 22.7298C33.064 22.8958 33.2221 23.0602 33.3914 23.2112C33.6251 23.4193 34.0022 23.3926 34.2141 23.1662C34.3178 23.0559 34.3756 22.9102 34.3756 22.7587C34.3756 22.6073 34.3178 22.4616 34.2141 22.3512C34.0718 22.2005 33.9258 22.0523 33.7739 21.9114C33.5837 21.7349 33.3584 21.6997 33.1237 21.8026C32.8891 21.9054 32.7805 22.0956 32.7714 22.3485H32.7706ZM34.8084 24.3186C34.8058 24.5283 34.848 24.6631 34.9491 24.7699C35.0999 24.931 35.2546 25.0893 35.417 25.2383C35.6503 25.4524 36.0197 25.4352 36.2395 25.21C36.3491 25.1005 36.4113 24.9523 36.4126 24.7973C36.4139 24.6424 36.3543 24.4931 36.2466 24.3817C36.1057 24.2339 35.9619 24.0885 35.8131 23.9488C35.6234 23.7707 35.3988 23.7371 35.1636 23.836C34.9283 23.9349 34.8179 24.1283 34.8094 24.3186H34.8084Z" fill="white"/>
</svg>
