<svg width="54" height="54" viewBox="0 0 54 54" fill="none" xmlns="http://www.w3.org/2000/svg">
<circle cx="27" cy="27" r="27" fill="#B0F299"/>
<path d="M26.661 10.8C20.1562 10.8 14.8501 16.5031 14.8501 23.2542C14.8501 30.326 21.175 38.1285 25.3465 42.3867C25.3626 42.4066 26.0568 43.2001 26.9149 43.2001C26.9181 43.2001 26.9888 43.2001 26.992 43.2001C27.8469 43.2001 28.5379 42.4066 28.5539 42.3867C32.0892 37.8078 38.4751 30.0119 38.4751 23.2542C38.4719 16.5031 34.1525 10.8 26.661 10.8ZM26.661 31.05C22.3127 31.05 18.7871 27.4232 18.7871 22.95C18.7871 18.4769 22.3127 14.85 26.661 14.85C31.0093 14.85 34.5349 18.4769 34.5349 22.95C34.5349 27.4232 31.0093 31.05 26.661 31.05Z" fill="white"/>
</svg>
