<svg  viewBox="0 0 29 43" fill="none" xmlns="http://www.w3.org/2000/svg">
<path fill-rule="evenodd" clip-rule="evenodd" d="M28.4102 40.3029V42.2212H6.74286C3.01837 42.2212 0 39.2029 0 35.4792V6.74612C0 3.01796 3.01837 0 6.74286 0H28.4102V1.91469C26.7355 1.94082 25.3767 3.30735 25.3767 4.98857C25.3767 6.66694 26.7355 8.03347 28.4102 8.05592V9.97796C26.7355 10.0045 25.3767 11.3669 25.3767 13.049C25.3767 14.731 26.7355 16.0967 28.4102 16.1196V18.038C26.7355 18.0645 25.3767 19.4269 25.3767 21.1122C25.3767 22.7906 26.7355 24.1567 28.4102 24.1792V26.1016C26.7355 26.1241 25.3767 27.4902 25.3767 29.1722C25.3767 30.8502 26.7355 32.2204 28.4102 32.2433V34.1612C26.7355 34.1841 25.3767 35.5502 25.3767 37.2327C25.3767 38.9139 26.7355 40.2804 28.4102 40.3029Z" fill="#FFDC00"/>
<path fill-rule="evenodd" clip-rule="evenodd" d="M16.3461 10.2645L12.558 10.2645L12.558 25.5466L16.3461 24.2702L16.3461 10.2645Z" fill="#828283"/>
<path fill-rule="evenodd" clip-rule="evenodd" d="M14.4506 32C15.8584 32 17 30.8547 17 29.4506C17 28.0433 15.8584 26.902 14.4506 26.902C13.0429 26.902 11.9012 28.0433 11.9012 29.4506C11.9012 30.8547 13.0429 32 14.4506 32Z" fill="#828283"/>
</svg>
